<mxfile host="app.diagrams.net" modified="2022-07-25T08:32:36.799Z" agent="5.0 (Windows NT 10.0; Win64; x64) AppleWebKit/537.36 (KHTML, like Gecko) Chrome/103.0.0.0 Safari/537.36" etag="W9Ig-vaC30WSbIXp3jFP" version="20.2.0" type="github" pages="2">
  <diagram name="Page-1" id="13e1069c-82ec-6db2-03f1-153e76fe0fe0">
    <mxGraphModel dx="2060" dy="1162" grid="1" gridSize="10" guides="1" tooltips="1" connect="1" arrows="1" fold="1" page="1" pageScale="1" pageWidth="1100" pageHeight="850" background="none" math="0" shadow="0">
      <root>
        <mxCell id="0" />
        <mxCell id="1" parent="0" />
        <mxCell id="yftTiQuvAdb0yS9cqvAz-3" value="" style="rounded=1;whiteSpace=wrap;html=1;fontSize=18;" vertex="1" parent="1">
          <mxGeometry x="270" y="240" width="520" height="500" as="geometry" />
        </mxCell>
        <mxCell id="yftTiQuvAdb0yS9cqvAz-1" value="&lt;font style=&quot;font-size: 18px;&quot;&gt;通信模块&lt;/font&gt;" style="rounded=0;whiteSpace=wrap;html=1;" vertex="1" parent="1">
          <mxGeometry x="490" y="260" width="120" height="60" as="geometry" />
        </mxCell>
        <mxCell id="yftTiQuvAdb0yS9cqvAz-4" value="worker" style="text;html=1;strokeColor=none;fillColor=none;align=center;verticalAlign=middle;whiteSpace=wrap;rounded=0;fontSize=18;" vertex="1" parent="1">
          <mxGeometry x="300" y="275" width="60" height="30" as="geometry" />
        </mxCell>
        <mxCell id="yftTiQuvAdb0yS9cqvAz-8" value="" style="rounded=0;whiteSpace=wrap;html=1;fontSize=18;" vertex="1" parent="1">
          <mxGeometry x="330" y="440" width="330" height="270" as="geometry" />
        </mxCell>
        <mxCell id="yftTiQuvAdb0yS9cqvAz-9" value="SecGuard-BAS" style="rounded=0;whiteSpace=wrap;html=1;fontSize=18;" vertex="1" parent="1">
          <mxGeometry x="470" y="470" width="150" height="60" as="geometry" />
        </mxCell>
        <mxCell id="yftTiQuvAdb0yS9cqvAz-10" value="C-Spider" style="rounded=0;whiteSpace=wrap;html=1;fontSize=18;" vertex="1" parent="1">
          <mxGeometry x="470" y="540" width="150" height="60" as="geometry" />
        </mxCell>
        <mxCell id="yftTiQuvAdb0yS9cqvAz-12" value="..." style="text;html=1;strokeColor=none;fillColor=none;align=center;verticalAlign=middle;whiteSpace=wrap;rounded=0;fontSize=18;" vertex="1" parent="1">
          <mxGeometry x="520" y="670" width="60" height="30" as="geometry" />
        </mxCell>
        <mxCell id="yftTiQuvAdb0yS9cqvAz-13" value="自研脚本" style="rounded=0;whiteSpace=wrap;html=1;fontSize=18;" vertex="1" parent="1">
          <mxGeometry x="470" y="610" width="150" height="60" as="geometry" />
        </mxCell>
        <mxCell id="yftTiQuvAdb0yS9cqvAz-15" value="工具模块" style="text;html=1;strokeColor=none;fillColor=none;align=center;verticalAlign=middle;whiteSpace=wrap;rounded=0;fontSize=18;" vertex="1" parent="1">
          <mxGeometry x="340" y="450" width="80" height="30" as="geometry" />
        </mxCell>
        <mxCell id="yftTiQuvAdb0yS9cqvAz-17" value="&lt;font style=&quot;font-size: 18px;&quot;&gt;业务逻辑&lt;/font&gt;" style="rounded=0;whiteSpace=wrap;html=1;" vertex="1" parent="1">
          <mxGeometry x="490" y="350" width="120" height="60" as="geometry" />
        </mxCell>
        <mxCell id="yftTiQuvAdb0yS9cqvAz-18" value="" style="endArrow=classic;startArrow=classic;html=1;rounded=0;fontSize=18;" edge="1" parent="1" source="yftTiQuvAdb0yS9cqvAz-17">
          <mxGeometry width="50" height="50" relative="1" as="geometry">
            <mxPoint x="500" y="370" as="sourcePoint" />
            <mxPoint x="550" y="320" as="targetPoint" />
          </mxGeometry>
        </mxCell>
        <mxCell id="yftTiQuvAdb0yS9cqvAz-19" value="" style="endArrow=classic;startArrow=classic;html=1;rounded=0;fontSize=18;" edge="1" parent="1">
          <mxGeometry width="50" height="50" relative="1" as="geometry">
            <mxPoint x="549" y="440" as="sourcePoint" />
            <mxPoint x="549" y="410" as="targetPoint" />
          </mxGeometry>
        </mxCell>
        <mxCell id="yftTiQuvAdb0yS9cqvAz-2" value="" style="endArrow=classic;startArrow=classic;html=1;rounded=0;fontSize=18;" edge="1" parent="1">
          <mxGeometry width="50" height="50" relative="1" as="geometry">
            <mxPoint x="549.5" y="260" as="sourcePoint" />
            <mxPoint x="549.5" y="151.42857142857144" as="targetPoint" />
          </mxGeometry>
        </mxCell>
        <mxCell id="yftTiQuvAdb0yS9cqvAz-5" value="server" style="rounded=1;whiteSpace=wrap;html=1;fontSize=18;" vertex="1" parent="1">
          <mxGeometry x="490" y="70" width="120" height="81.42857142857143" as="geometry" />
        </mxCell>
        <mxCell id="yftTiQuvAdb0yS9cqvAz-6" value="http" style="text;html=1;strokeColor=none;fillColor=none;align=center;verticalAlign=middle;whiteSpace=wrap;rounded=0;fontSize=18;" vertex="1" parent="1">
          <mxGeometry x="550" y="178.57142857142858" width="60" height="40.714285714285715" as="geometry" />
        </mxCell>
      </root>
    </mxGraphModel>
  </diagram>
  <diagram id="ph3zHV09pIAfMVCQ905e" name="第 2 页">
    <mxGraphModel dx="2060" dy="1162" grid="1" gridSize="10" guides="1" tooltips="1" connect="1" arrows="1" fold="1" page="1" pageScale="1" pageWidth="827" pageHeight="1169" math="0" shadow="0">
      <root>
        <mxCell id="0" />
        <mxCell id="1" parent="0" />
      </root>
    </mxGraphModel>
  </diagram>
</mxfile>
